<svg width="18.003784" height="14.086990" viewBox="0 0 18.0038 14.087" fill="none" xmlns="http://www.w3.org/2000/svg" xmlns:xlink="http://www.w3.org/1999/xlink">
	<desc>
			Created with Pixso.
	</desc>
	<defs/>
	<path id="hidden" d="M3.44 0.19C3.39 0.13 3.33 0.09 3.25 0.05C3.18 0.02 3.1 0 3.02 0C2.94 -0.01 2.87 0 2.79 0.03C2.72 0.06 2.65 0.09 2.59 0.15C2.53 0.2 2.48 0.26 2.45 0.33C2.42 0.4 2.4 0.48 2.39 0.56C2.39 0.64 2.4 0.71 2.43 0.78C2.46 0.86 2.5 0.92 2.55 0.98L4 2.53C1.27 4.17 0.1 6.69 0.05 6.8C-0.02 6.96 -0.02 7.12 0.05 7.28C0.08 7.34 0.71 8.71 2.12 10.09C4 11.93 6.38 12.9 9 12.9C10.36 12.91 11.66 12.65 12.9 12.11L14.55 13.88C14.61 13.94 14.67 13.99 14.74 14.02C14.81 14.06 14.89 14.08 14.97 14.08C15.05 14.09 15.13 14.07 15.2 14.05C15.28 14.02 15.35 13.98 15.41 13.93C15.46 13.88 15.51 13.81 15.55 13.74C15.58 13.67 15.6 13.6 15.6 13.52C15.6 13.44 15.59 13.37 15.56 13.29C15.54 13.22 15.5 13.15 15.44 13.1L3.44 0.19ZM6.99 5.75L10.12 9.11C9.88 9.24 9.63 9.32 9.37 9.36C9.11 9.4 8.84 9.39 8.58 9.35C8.32 9.3 8.07 9.22 7.84 9.09C7.61 8.97 7.4 8.81 7.22 8.62C7.04 8.42 6.9 8.21 6.8 7.97C6.69 7.73 6.63 7.48 6.61 7.22C6.59 6.96 6.61 6.71 6.67 6.46C6.74 6.2 6.85 5.97 6.99 5.75ZM9 11.73C6.69 11.73 4.67 10.91 3 9.29C2.31 8.62 1.74 7.87 1.27 7.04C1.62 6.39 2.75 4.59 4.82 3.42L6.17 4.87C6.04 5.03 5.93 5.2 5.83 5.38C5.73 5.56 5.65 5.75 5.59 5.95C5.52 6.15 5.47 6.35 5.45 6.55C5.42 6.75 5.41 6.96 5.41 7.16C5.42 7.37 5.45 7.57 5.49 7.77C5.54 7.98 5.6 8.17 5.68 8.36C5.76 8.55 5.85 8.74 5.97 8.91C6.08 9.08 6.21 9.25 6.35 9.4C6.49 9.55 6.64 9.69 6.81 9.82C6.98 9.94 7.15 10.05 7.34 10.15C7.53 10.24 7.72 10.32 7.92 10.39C8.12 10.45 8.33 10.49 8.54 10.52C8.75 10.55 8.95 10.56 9.17 10.55C9.38 10.54 9.58 10.51 9.79 10.47C10 10.42 10.2 10.36 10.39 10.28C10.58 10.2 10.77 10.11 10.95 10L12.05 11.19C11.07 11.55 10.05 11.74 9 11.73ZM9.45 4.73C9.37 4.72 9.3 4.69 9.23 4.65C9.16 4.61 9.11 4.55 9.06 4.49C9.02 4.42 8.99 4.35 8.97 4.28C8.96 4.2 8.96 4.12 8.97 4.05C8.99 3.97 9.02 3.9 9.06 3.84C9.1 3.77 9.16 3.72 9.22 3.67C9.29 3.63 9.36 3.6 9.44 3.58C9.52 3.57 9.59 3.57 9.67 3.58C9.86 3.62 10.05 3.67 10.23 3.73C10.41 3.8 10.59 3.88 10.76 3.97C10.92 4.06 11.08 4.17 11.24 4.29C11.39 4.4 11.53 4.53 11.66 4.67C11.79 4.81 11.91 4.96 12.01 5.12C12.12 5.28 12.21 5.44 12.29 5.62C12.37 5.79 12.43 5.97 12.48 6.15C12.53 6.33 12.56 6.52 12.58 6.71C12.59 6.79 12.58 6.86 12.56 6.94C12.53 7.01 12.5 7.08 12.44 7.14C12.39 7.2 12.33 7.24 12.26 7.28C12.19 7.32 12.12 7.34 12.04 7.35C12.02 7.35 12 7.35 11.98 7.35C11.91 7.35 11.84 7.33 11.77 7.31C11.7 7.28 11.63 7.24 11.58 7.19C11.52 7.14 11.48 7.09 11.44 7.02C11.41 6.96 11.39 6.89 11.38 6.81C11.36 6.56 11.29 6.32 11.19 6.09C11.08 5.86 10.94 5.65 10.77 5.46C10.59 5.27 10.39 5.12 10.17 4.99C9.94 4.87 9.7 4.78 9.45 4.73ZM17.94 7.28C17.91 7.35 17.15 8.99 15.44 10.49C15.38 10.54 15.32 10.58 15.24 10.61C15.16 10.64 15.09 10.65 15.01 10.64C14.93 10.64 14.85 10.62 14.78 10.59C14.7 10.55 14.64 10.51 14.59 10.45C14.53 10.39 14.49 10.32 14.47 10.25C14.44 10.18 14.43 10.1 14.44 10.02C14.44 9.94 14.46 9.87 14.5 9.8C14.53 9.73 14.58 9.67 14.64 9.61C15.49 8.87 16.18 8.01 16.73 7.04C16.26 6.2 15.68 5.45 14.99 4.78C13.32 3.17 11.31 2.35 9 2.35C8.51 2.35 8.03 2.38 7.55 2.46C7.47 2.48 7.39 2.47 7.31 2.46C7.23 2.44 7.16 2.41 7.09 2.36C7.03 2.32 6.98 2.26 6.93 2.2C6.89 2.13 6.86 2.06 6.85 1.98C6.84 1.9 6.84 1.83 6.86 1.75C6.87 1.67 6.91 1.6 6.95 1.54C7 1.48 7.06 1.43 7.13 1.38C7.19 1.34 7.27 1.32 7.35 1.3C7.89 1.22 8.44 1.17 9 1.17C11.61 1.17 13.99 2.15 15.87 3.98C17.28 5.37 17.92 6.74 17.95 6.8C18.02 6.96 18.02 7.12 17.94 7.28Z" fill="#807F7F" fill-opacity="1.000000" fill-rule="nonzero"/>
</svg>
