<svg width="18.004883" height="11.739128" viewBox="0 0 18.0049 11.7391" fill="none" xmlns="http://www.w3.org/2000/svg" xmlns:xlink="http://www.w3.org/1999/xlink">
	<desc>
			Created with Pixso.
	</desc>
	<defs/>
	<path id="show" d="M17.95 5.63C17.92 5.57 17.28 4.19 15.87 2.81C13.99 0.97 11.61 0 9 0C6.38 0 4 0.97 2.12 2.81C0.71 4.19 0.07 5.57 0.05 5.63C-0.02 5.79 -0.02 5.94 0.05 6.1C0.08 6.16 0.71 7.54 2.12 8.92C4 10.76 6.38 11.73 9 11.73C11.61 11.73 13.99 10.76 15.87 8.92C17.28 7.54 17.92 6.16 17.95 6.1C18.02 5.94 18.02 5.79 17.95 5.63ZM9 10.56C6.69 10.56 4.67 9.74 3 8.12C2.31 7.45 1.74 6.7 1.27 5.86C1.74 5.03 2.31 4.28 3 3.61C4.67 1.99 6.69 1.17 9 1.17C11.31 1.17 13.32 1.99 14.99 3.61C15.68 4.28 16.26 5.03 16.73 5.86C16.19 6.85 13.83 10.56 9 10.56ZM9 2.34C8.76 2.34 8.53 2.37 8.3 2.41C8.06 2.46 7.84 2.52 7.62 2.61C7.4 2.7 7.19 2.81 7 2.94C6.8 3.06 6.62 3.21 6.45 3.37C6.28 3.54 6.14 3.72 6 3.91C5.87 4.1 5.76 4.3 5.67 4.52C5.58 4.73 5.51 4.95 5.47 5.18C5.42 5.4 5.4 5.63 5.4 5.86C5.4 6.1 5.42 6.32 5.47 6.55C5.51 6.78 5.58 7 5.67 7.21C5.76 7.43 5.87 7.63 6 7.82C6.14 8.01 6.28 8.19 6.45 8.35C6.62 8.52 6.8 8.66 7 8.79C7.19 8.92 7.4 9.03 7.62 9.12C7.84 9.21 8.06 9.27 8.3 9.32C8.53 9.36 8.76 9.39 9 9.39C9.23 9.39 9.47 9.36 9.7 9.32C9.93 9.27 10.16 9.21 10.38 9.12C10.59 9.03 10.8 8.92 11 8.79C11.19 8.66 11.38 8.52 11.54 8.35C11.71 8.19 11.86 8.01 11.99 7.82C12.12 7.63 12.23 7.43 12.32 7.21C12.41 7 12.48 6.78 12.53 6.55C12.57 6.32 12.6 6.1 12.6 5.86C12.6 5.63 12.57 5.4 12.53 5.18C12.48 4.95 12.41 4.73 12.32 4.52C12.23 4.3 12.12 4.1 11.99 3.91C11.86 3.72 11.71 3.54 11.54 3.38C11.37 3.21 11.19 3.07 11 2.94C10.8 2.81 10.59 2.7 10.37 2.61C10.16 2.52 9.93 2.46 9.7 2.41C9.47 2.37 9.23 2.34 9 2.34ZM9 8.21C8.84 8.21 8.68 8.2 8.53 8.17C8.37 8.14 8.22 8.09 8.08 8.03C7.93 7.97 7.8 7.9 7.66 7.82C7.53 7.73 7.41 7.63 7.3 7.52C7.19 7.42 7.09 7.3 7 7.17C6.91 7.04 6.84 6.91 6.78 6.76C6.72 6.62 6.67 6.47 6.64 6.32C6.61 6.17 6.6 6.02 6.6 5.86C6.6 5.71 6.61 5.56 6.64 5.41C6.67 5.26 6.72 5.11 6.78 4.97C6.84 4.82 6.91 4.69 7 4.56C7.09 4.43 7.19 4.31 7.3 4.2C7.41 4.1 7.53 4 7.66 3.91C7.8 3.83 7.93 3.75 8.08 3.7C8.22 3.64 8.37 3.59 8.53 3.56C8.68 3.53 8.84 3.52 9 3.52C9.16 3.52 9.31 3.53 9.47 3.56C9.62 3.59 9.77 3.64 9.92 3.7C10.06 3.75 10.2 3.83 10.33 3.91C10.46 4 10.58 4.1 10.69 4.2C10.81 4.31 10.91 4.43 10.99 4.56C11.08 4.69 11.15 4.82 11.21 4.97C11.28 5.11 11.32 5.26 11.35 5.41C11.38 5.56 11.4 5.71 11.4 5.86C11.4 6.02 11.38 6.17 11.35 6.32C11.32 6.47 11.28 6.62 11.21 6.76C11.15 6.91 11.08 7.04 10.99 7.17C10.91 7.3 10.81 7.42 10.69 7.52C10.58 7.63 10.46 7.73 10.33 7.82C10.2 7.9 10.06 7.97 9.92 8.03C9.77 8.09 9.62 8.14 9.47 8.17C9.31 8.2 9.16 8.21 9 8.21Z" fill="#807F7F" fill-opacity="1.000000" fill-rule="nonzero"/>
</svg>
